:FULLY-SPECIFIED
:FORCE-ALL-JOINTS-BE-3DOF
:DEGREES
71
root 4.88191 17.546 -12.4319 4.4659 -5.62905 -2.91423
lfemur -25.4169 -0.84495 -17.9265
ltibia 24.5312 0 0
lfoot -0.84991 8.20914 -0.0199512
ltoes -11.6061 0 0
rfemur 1.54025 2.09876 25.4013
rtibia 58.5251 0 0
rfoot 15.8874 -9.21143 0.267154
rtoes 4.15076 0 0
lowerback 4.04358 0.608594 1.48173
upperback 0.0445532 0.789633 1.2493
thorax -2.10349 0.45109 0.282634
lowerneck -15.6896 -2.08462 -6.56847
upperneck 5.64013 -2.20536 8.1153
head 4.70983 -0.840494 3.51535
lclavicle -1.02001e-14 1.471e-14 1.43257e-30
lhumerus -44.004 -6.99159 88.4127
lradius 62.2891 0 0
lwrist 13.0221 0 0
lhand -19.1707 -2.7973 -2.43712
lfingers 7.12502 0 0
lthumb 7.11285 26.2448 -2.45387
rclavicle -1.02001e-14 1.471e-14 1.43257e-30
rhumerus -39.6396 17.1843 -89.7258
rradius 69.134 0 0
rwrist -12.3521 0 0
rhand -36.1588 5.16245 -1.43623
rfingers 7.12502 0 0
rthumb -9.2599 -24.5401 -1.39786
72
root 4.88393 17.5087 -12.1145 4.20696 -5.52598 -2.40518
lfemur -24.3785 -0.1637 -19.0389
ltibia 24.372 0 0
lfoot -0.61976 7.2917 -0.104757
ltoes -12.7552 0 0
rfemur 0.00469846 1.67148 24.9005
rtibia 61.4202 0 0
rfoot 14.6814 -8.99696 0.286892
rtoes 4.53715 0 0
lowerback 4.26758 0.55625 0.824594
upperback 0.0845616 0.68139 1.15799
thorax -2.19329 0.408532 0.552577
lowerneck -15.5575 -2.12097 -6.57791
upperneck 5.61955 -2.25293 8.07235
head 4.67959 -0.870757 3.50122
lclavicle -1.36727e-14 -1.47101e-14 -4.95639e-31
lhumerus -42.9961 -7.40046 88.2695
lradius 62.5945 0 0
lwrist 13.2965 0 0
lhand -19.0362 -2.56635 -2.41669
lfingers 7.12502 0 0
lthumb 7.24215 26.4692 -2.4362
rclavicle -1.36727e-14 -1.47101e-14 -4.95639e-31
rhumerus -40.3179 16.6746 -89.6289
rradius 68.436 0 0
rwrist -12.7989 0 0
rhand -36.0198 5.7165 -1.44412
rfingers 7.12502 0 0
rthumb -9.1258 -23.992 -1.40534
73
root 4.88743 17.4566 -11.8005 3.95607 -5.16629 -1.76395
lfemur -23.4717 0.313821 -20.2671
ltibia 24.5664 0 0
lfoot -0.61505 6.0926 -0.211436
ltoes -11.0728 0 0
rfemur -1.45643 0.945451 24.2152
rtibia 64.1642 0 0
rfoot 13.6 -9.07512 0.289284
rtoes 4.4772 0 0
lowerback 4.42526 0.41703 0.143389
upperback 0.131167 0.453895 1.00166
thorax -2.24303 0.305884 0.786448
lowerneck -15.3365 -2.11119 -6.48687
upperneck 5.50954 -2.25396 7.94397
head 4.59893 -0.878888 3.44243
lclavicle -2.965e-14 1.27222e-14 -5.33416e-31
lhumerus -41.7591 -8.06553 88.1442
lradius 62.7188 0 0
lwrist 13.7488 0 0
lhand -19.3437 -2.21825 -2.47796
lfingers 7.12502 0 0
lthumb 6.94575 26.8079 -2.4937
rclavicle -2.965e-14 1.27222e-14 -5.33416e-31
rhumerus -40.9182 16.1443 -89.5123
rradius 67.7832 0 0
rwrist -13.2838 0 0
rhand -36.1647 6.8988 -1.53471
rfingers 7.12502 0 0
rthumb -9.26542 -22.7979 -1.49382
74
root 4.89669 17.3999 -11.4699 3.60855 -4.99041 -1.19115
lfemur -22.5444 0.807922 -21.4284
ltibia 25.2218 0 0
lfoot -1.73119 4.64111 -0.342527
ltoes -8.56933 0 0
rfemur -2.67409 0.308643 23.4535
rtibia 66.7611 0 0
rfoot 12.4603 -9.22074 0.267968
rtoes 5.66255 0 0
lowerback 4.52003 0.344661 -0.434368
upperback 0.204818 0.321456 0.855013
thorax -2.23148 0.247809 0.973585
lowerneck -14.9436 -2.06492 -6.48158
upperneck 5.37919 -2.20617 7.92258
head 4.47651 -0.862493 3.4267
lclavicle 4.62174e-15 5.96354e-15 4.18975e-32
lhumerus -40.4959 -8.65818 87.9787
lradius 62.8286 0 0
lwrist 14.0303 0 0
lhand -19.4694 -1.57425 -2.61326
lfingers 7.12502 0 0
lthumb 6.82495 27.4567 -2.62243
rclavicle 4.62174e-15 5.96354e-15 4.18975e-32
rhumerus -41.5321 15.6455 -89.3504
rradius 67.0114 0 0
rwrist -13.7323 0 0
rhand -36.2689 7.3832 -1.60221
rfingers 7.12502 0 0
rthumb -9.36556 -22.3043 -1.55985
75
root 4.90298 17.3453 -11.1444 3.27359 -4.682 -0.779374
lfemur -21.8083 1.11271 -22.3348
ltibia 26.1841 0 0
lfoot -3.65218 3.67421 -0.409507
ltoes -8.91213 0 0
rfemur -4.00472 -0.433869 22.8719
rtibia 69.2871 0 0
rfoot 11.233 -9.40543 0.263339
rtoes 6.0796 0 0
lowerback 4.76791 0.209677 -0.890471
upperback 0.247851 0.111588 0.775734
thorax -2.33402 0.151385 1.17583
lowerneck -14.8856 -1.9795 -6.32197
upperneck 5.59443 -2.1218 7.78739
head 4.52114 -0.825488 3.35969
lclavicle 3.39177e-15 3.18055e-15 8.26573e-31
lhumerus -39.1844 -9.09096 87.6836
lradius 62.9903 0 0
lwrist 14.0966 0 0
lhand -19.4327 -2.00565 -2.61885
lfingers 7.12502 0 0
lthumb 6.85965 27.0082 -2.6303
rclavicle 3.39177e-15 3.18055e-15 8.26573e-31
rhumerus -42.1501 15.2387 -89.247
rradius 66.1362 0 0
rwrist -13.7949 0 0
rhand -36.168 6.6335 -1.65529
rfingers 7.12502 0 0
rthumb -9.26806 -23.0512 -1.61211
76
root 4.91017 17.2849 -10.8248 2.95642 -4.23447 -0.482427
lfemur -20.8226 1.08893 -22.943
ltibia 27.3859 0 0
lfoot -6.39454 3.64279 -0.35242
ltoes -6.69403 0 0
rfemur -5.43844 -1.23385 22.4073
rtibia 71.715 0 0
rfoot 9.7501 -9.67114 0.306608
rtoes 6.12275 0 0
lowerback 5.00682 0.0204133 -1.13037
upperback 0.305524 -0.159319 0.694008
thorax -2.41402 0.0219475 1.2651
lowerneck -15.0236 -2.0218 -6.63173
upperneck 6.04839 -2.15953 8.07195
head 4.7261 -0.837204 3.52086
lclavicle 1.76049e-14 2.78298e-15 -3.69621e-31
lhumerus -37.8658 -9.74182 87.4668
lradius 63.3345 0 0
lwrist 14.2508 0 0
lhand -18.8753 -3.17465 -2.49359
lfingers 7.12502 0 0
lthumb 7.3937 25.769 -2.52405
rclavicle 1.76049e-14 2.78298e-15 -3.69621e-31
rhumerus -42.7307 14.7298 -89.1612
rradius 65.143 0 0
rwrist -13.514 0 0
rhand -36.1589 6.25215 -1.67185
rfingers 7.12502 0 0
rthumb -9.25905 -23.4281 -1.62884
